<svg width="147" height="30" viewBox="0 0 147 30" fill="none" xmlns="http://www.w3.org/2000/svg">
<path d="M21.5895 30H8.41046C3.77099 30 0 26.2258 0 21.5895V8.41046C0 3.77099 3.77099 0 8.41046 0H21.5895C26.2258 0 30 3.77099 30 8.41046V21.5895C30 26.2258 26.2258 30 21.5895 30ZM8.41046 2.90573C5.37559 2.90573 2.90573 5.37559 2.90573 8.41046V21.5895C2.90573 24.6244 5.37559 27.0943 8.41046 27.0943H21.5895C24.6244 27.0943 27.0943 24.6244 27.0943 21.5895V8.41046C27.0943 5.37559 24.6244 2.90573 21.5895 2.90573H8.41046Z" fill="#4337DE"/>
<path d="M23.6653 12.882V23.6461H11.8164L23.6653 12.882Z" fill="#4337DE"/>
<path d="M140.574 14.2681V20.021H138.26V10.2028H140.471V11.8711H140.586C140.812 11.3214 141.172 10.8846 141.667 10.5607C142.165 10.2369 142.781 10.0749 143.514 10.0749C144.192 10.0749 144.782 10.2198 145.285 10.5096C145.792 10.7994 146.184 11.2191 146.461 11.7688C146.742 12.3185 146.881 12.9854 146.876 13.7695V20.021H144.562V14.1275C144.562 13.4712 144.392 12.9577 144.051 12.587C143.714 12.2163 143.248 12.0309 142.651 12.0309C142.246 12.0309 141.886 12.1204 141.571 12.2994C141.26 12.4741 141.015 12.7276 140.836 13.06C140.661 13.3924 140.574 13.7951 140.574 14.2681Z" fill="#2E2C2F"/>
<path d="M133.566 20.0209V10.2028H135.88V20.0209H133.566ZM134.729 8.8093C134.363 8.8093 134.047 8.68785 133.783 8.44495C133.519 8.19779 133.387 7.90163 133.387 7.55646C133.387 7.20703 133.519 6.91086 133.783 6.66796C134.047 6.42081 134.363 6.29723 134.729 6.29723C135.1 6.29723 135.415 6.42081 135.675 6.66796C135.939 6.91086 136.071 7.20703 136.071 7.55646C136.071 7.90163 135.939 8.19779 135.675 8.44495C135.415 8.68785 135.1 8.8093 134.729 8.8093Z" fill="#2E2C2F"/>
<path d="M117.412 20.021V10.2028H119.624V11.8711H119.739C119.943 11.3086 120.282 10.8697 120.755 10.5543C121.228 10.2347 121.793 10.0749 122.449 10.0749C123.114 10.0749 123.674 10.2369 124.13 10.5607C124.59 10.8803 124.914 11.3171 125.102 11.8711H125.204C125.421 11.3256 125.788 10.891 126.303 10.5671C126.823 10.239 127.439 10.0749 128.151 10.0749C129.054 10.0749 129.791 10.3604 130.362 10.9315C130.933 11.5025 131.219 12.3356 131.219 13.4308V20.021H128.899V13.7887C128.899 13.1793 128.737 12.734 128.413 12.4528C128.089 12.1673 127.693 12.0245 127.224 12.0245C126.666 12.0245 126.229 12.1992 125.914 12.5486C125.602 12.8938 125.447 13.3434 125.447 13.8974V20.021H123.178V13.6928C123.178 13.1857 123.024 12.7809 122.718 12.4783C122.415 12.1758 122.019 12.0245 121.529 12.0245C121.196 12.0245 120.894 12.1097 120.621 12.2802C120.348 12.4464 120.131 12.6829 119.969 12.9897C119.807 13.2923 119.726 13.646 119.726 14.0508V20.021H117.412Z" fill="#2E2C2F"/>
<path d="M109.718 20.1935C108.947 20.1935 108.256 19.9954 107.647 19.5991C107.038 19.2028 106.556 18.6275 106.202 17.8732C105.849 17.119 105.672 16.2028 105.672 15.1246C105.672 14.0337 105.851 13.1133 106.209 12.3633C106.571 11.609 107.059 11.0401 107.673 10.6566C108.286 10.2688 108.97 10.0749 109.724 10.0749C110.3 10.0749 110.773 10.1729 111.143 10.369C111.514 10.5607 111.808 10.793 112.026 11.0657C112.243 11.3342 112.411 11.5877 112.531 11.8263H112.626V6.93004H114.947V20.0209H112.671V18.4741H112.531C112.411 18.7127 112.239 18.9663 112.013 19.2347C111.787 19.4989 111.489 19.7248 111.118 19.9123C110.747 20.0998 110.281 20.1935 109.718 20.1935ZM110.364 18.2951C110.854 18.2951 111.271 18.163 111.616 17.8988C111.962 17.6303 112.224 17.2575 112.403 16.7802C112.582 16.3029 112.671 15.7468 112.671 15.1119C112.671 14.4769 112.582 13.9251 112.403 13.4563C112.228 12.9876 111.968 12.6232 111.623 12.3633C111.282 12.1033 110.862 11.9734 110.364 11.9734C109.848 11.9734 109.418 12.1076 109.072 12.3761C108.727 12.6445 108.467 13.0153 108.293 13.4883C108.118 13.9613 108.031 14.5025 108.031 15.1119C108.031 15.7255 108.118 16.2731 108.293 16.7546C108.472 17.2319 108.734 17.609 109.079 17.886C109.428 18.1587 109.857 18.2951 110.364 18.2951Z" fill="#2E2C2F"/>
<path d="M95.1309 20.0209H92.5996L97.2083 6.93004H100.136L104.751 20.0209H102.22L98.7232 9.6147H98.6209L95.1309 20.0209ZM95.214 14.8881H102.117V16.793H95.214V14.8881Z" fill="#2E2C2F"/>
<path d="M86.9316 20.0209V10.2028H89.1753V11.8391H89.2775C89.4565 11.2724 89.7633 10.8356 90.198 10.5288C90.6369 10.2177 91.1376 10.0621 91.7001 10.0621C91.8279 10.0621 91.9707 10.0685 92.1284 10.0813C92.2903 10.0898 92.4245 10.1048 92.5311 10.1261V12.2546C92.4331 12.2205 92.2775 12.1907 92.0645 12.1651C91.8556 12.1353 91.6532 12.1204 91.4572 12.1204C91.0353 12.1204 90.6561 12.212 90.3194 12.3952C89.987 12.5742 89.725 12.8235 89.5332 13.1431C89.3414 13.4627 89.2456 13.8313 89.2456 14.2489V20.0209H86.9316Z" fill="#2E2C2F"/>
<path d="M80.6083 20.2127C79.6239 20.2127 78.7738 20.0082 78.0579 19.5991C77.3462 19.1857 76.7987 18.6019 76.4151 17.8477C76.0316 17.0891 75.8398 16.1964 75.8398 15.1694C75.8398 14.1594 76.0316 13.2731 76.4151 12.5103C76.8029 11.7433 77.3441 11.1467 78.0387 10.7205C78.7333 10.2901 79.5494 10.0749 80.4869 10.0749C81.092 10.0749 81.663 10.1729 82.1999 10.369C82.7411 10.5607 83.2184 10.859 83.6317 11.2638C84.0494 11.6687 84.3775 12.1843 84.6161 12.8107C84.8548 13.4329 84.9741 14.1744 84.9741 15.0352V15.7447H76.9265V14.185H82.756C82.7518 13.7418 82.6559 13.3477 82.4684 13.0025C82.2809 12.6531 82.0188 12.3782 81.6822 12.1779C81.3498 11.9776 80.962 11.8775 80.5188 11.8775C80.0458 11.8775 79.6303 11.9925 79.2724 12.2227C78.9144 12.4485 78.6353 12.7468 78.435 13.1175C78.239 13.484 78.1389 13.8867 78.1346 14.3256V15.6871C78.1346 16.2582 78.239 16.7482 78.4478 17.1573C78.6566 17.5621 78.9485 17.8732 79.3235 18.0906C79.6985 18.3036 80.1374 18.4102 80.6403 18.4102C80.9769 18.4102 81.2816 18.3633 81.5543 18.2695C81.8271 18.1715 82.0636 18.0288 82.2639 17.8413C82.4641 17.6538 82.6154 17.4215 82.7177 17.1445L84.8782 17.3874C84.7418 17.9585 84.4819 18.457 84.0984 18.8832C83.7191 19.305 83.2333 19.6332 82.641 19.8675C82.0487 20.0977 81.3711 20.2127 80.6083 20.2127Z" fill="#2E2C2F"/>
<path d="M65.0117 23.7028V10.2028H67.2873V11.8263H67.4215C67.5408 11.5877 67.7092 11.3342 67.9265 11.0657C68.1438 10.793 68.4379 10.5607 68.8086 10.369C69.1793 10.1729 69.6523 10.0749 70.2276 10.0749C70.9861 10.0749 71.6701 10.2688 72.2795 10.6566C72.8931 11.0401 73.3789 11.609 73.7369 12.3633C74.0991 13.1133 74.2802 14.0337 74.2802 15.1246C74.2802 16.2028 74.1033 17.119 73.7496 17.8732C73.396 18.6275 72.9144 19.2028 72.305 19.5991C71.6957 19.9954 71.0053 20.1935 70.234 20.1935C69.6715 20.1935 69.2049 20.0998 68.8342 19.9123C68.4634 19.7248 68.1651 19.4989 67.9393 19.2347C67.7177 18.9663 67.5451 18.7127 67.4215 18.4741H67.3256V23.7028H65.0117ZM67.2809 15.1119C67.2809 15.7468 67.3704 16.3029 67.5494 16.7802C67.7326 17.2575 67.9947 17.6303 68.3356 17.8988C68.6808 18.163 69.0984 18.2951 69.5884 18.2951C70.0998 18.2951 70.5281 18.1587 70.8732 17.886C71.2184 17.609 71.4783 17.2319 71.6531 16.7546C71.832 16.2731 71.9215 15.7255 71.9215 15.1119C71.9215 14.5025 71.8342 13.9613 71.6594 13.4883C71.4847 13.0153 71.2248 12.6445 70.8796 12.3761C70.5344 12.1076 70.104 11.9734 69.5884 11.9734C69.0941 11.9734 68.6744 12.1033 68.3292 12.3633C67.984 12.6232 67.7219 12.9876 67.543 13.4563C67.3683 13.9251 67.2809 14.4769 67.2809 15.1119Z" fill="#2E2C2F"/>
<path d="M60.3184 15.8917V10.2028H62.6323V20.0209H60.3887V18.2759H60.2864C60.0648 18.8256 59.7005 19.2752 59.1934 19.6246C58.6905 19.9741 58.0705 20.1488 57.3333 20.1488C56.6898 20.1488 56.1209 20.006 55.6266 19.7205C55.1365 19.4307 54.753 19.011 54.476 18.4613C54.199 17.9073 54.0605 17.2383 54.0605 16.4542V10.2028H56.3745V16.0962C56.3745 16.7184 56.5449 17.2127 56.8858 17.5792C57.2267 17.9457 57.6742 18.1289 58.2282 18.1289C58.5691 18.1289 58.8993 18.0458 59.2189 17.8796C59.5385 17.7134 59.8006 17.4663 60.0051 17.1381C60.214 16.8057 60.3184 16.3903 60.3184 15.8917Z" fill="#2E2C2F"/>
<path d="M49.5874 10.5288C49.5277 9.97052 49.2763 9.53586 48.8331 9.22478C48.3942 8.9137 47.8232 8.75816 47.12 8.75816C46.6257 8.75816 46.2017 8.83274 45.848 8.98188C45.4943 9.13103 45.2237 9.33345 45.0362 9.58913C44.8487 9.84481 44.7528 10.1367 44.7486 10.4648C44.7486 10.7376 44.8104 10.9741 44.9339 11.1744C45.0618 11.3746 45.2344 11.5451 45.4517 11.6857C45.669 11.8221 45.9098 11.9371 46.174 12.0309C46.4382 12.1246 46.7045 12.2035 46.973 12.2674L48.2003 12.5742C48.6946 12.6893 49.1697 12.8448 49.6257 13.0408C50.0859 13.2369 50.4972 13.484 50.8594 13.7823C51.2259 14.0806 51.5156 14.4407 51.7287 14.8626C51.9418 15.2844 52.0483 15.7788 52.0483 16.3455C52.0483 17.1126 51.8523 17.788 51.4602 18.3718C51.0682 18.9513 50.5014 19.4052 49.7599 19.7333C49.0227 20.0572 48.13 20.2191 47.0817 20.2191C46.0632 20.2191 45.179 20.0614 44.429 19.7461C43.6832 19.4307 43.0994 18.9705 42.6776 18.3654C42.2599 17.7603 42.0341 17.0231 42 16.1538H44.3331C44.3672 16.6097 44.5078 16.989 44.755 17.2915C45.0021 17.5941 45.3239 17.82 45.7202 17.9691C46.1207 18.1182 46.5682 18.1928 47.0625 18.1928C47.5781 18.1928 48.0298 18.1161 48.4176 17.9627C48.8097 17.805 49.1165 17.5877 49.3381 17.3107C49.5597 17.0295 49.6726 16.7013 49.6768 16.3263C49.6726 15.9854 49.5724 15.7042 49.3764 15.4826C49.1804 15.2567 48.9055 15.0692 48.5518 14.9201C48.2024 14.7667 47.7933 14.6303 47.3246 14.511L45.8352 14.1275C44.7571 13.8505 43.9048 13.4307 43.2784 12.8682C42.6563 12.3015 42.3452 11.5494 42.3452 10.6119C42.3452 9.84055 42.554 9.16512 42.9716 8.58558C43.3935 8.00603 43.9666 7.55646 44.6911 7.23686C45.4155 6.91299 46.2358 6.75106 47.152 6.75106C48.081 6.75106 48.8949 6.91299 49.5938 7.23686C50.2969 7.55646 50.8487 8.00177 51.2493 8.57279C51.6499 9.13955 51.8565 9.79154 51.8693 10.5288H49.5874Z" fill="#2E2C2F"/>
</svg>
