<svg width="99" height="30" viewBox="0 0 99 30" fill="none" xmlns="http://www.w3.org/2000/svg">
<path d="M21.5895 30H8.41046C3.77099 30 0 26.2258 0 21.5895V8.41046C0 3.77099 3.77099 0 8.41046 0H21.5895C26.2258 0 30 3.77099 30 8.41046V21.5895C30 26.2258 26.2258 30 21.5895 30ZM8.41046 2.90573C5.37559 2.90573 2.90573 5.37559 2.90573 8.41046V21.5895C2.90573 24.6244 5.37559 27.0943 8.41046 27.0943H21.5895C24.6244 27.0943 27.0943 24.6244 27.0943 21.5895V8.41046C27.0943 5.37559 24.6244 2.90573 21.5895 2.90573H8.41046Z" fill="#4337DE"/>
<path d="M23.6653 12.882V23.6461H11.8164L23.6653 12.882Z" fill="#4337DE"/>
<path d="M92.873 21.5391V11.7209H95.1167V13.3572H95.2189C95.3979 12.7905 95.7047 12.3537 96.1394 12.0469C96.5783 11.7358 97.079 11.5803 97.6415 11.5803C97.7694 11.5803 97.9121 11.5866 98.0698 11.5994C98.2317 11.608 98.3659 11.6229 98.4725 11.6442V13.7727C98.3745 13.7386 98.2189 13.7088 98.0059 13.6832C97.7971 13.6534 97.5946 13.6385 97.3986 13.6385C96.9767 13.6385 96.5975 13.7301 96.2608 13.9134C95.9284 14.0923 95.6664 14.3416 95.4746 14.6612C95.2828 14.9808 95.187 15.3494 95.187 15.767V21.5391H92.873Z" fill="#2E2C2F"/>
<path d="M86.5497 21.7308C85.5653 21.7308 84.7152 21.5263 83.9993 21.1172C83.2876 20.7038 82.7401 20.12 82.3565 19.3658C81.973 18.6072 81.7812 17.7145 81.7812 16.6875C81.7812 15.6776 81.973 14.7912 82.3565 14.0284C82.7443 13.2614 83.2855 12.6648 83.9801 12.2386C84.6747 11.8082 85.4908 11.593 86.4283 11.593C87.0334 11.593 87.6044 11.6911 88.1413 11.8871C88.6825 12.0788 89.1598 12.3771 89.5732 12.782C89.9908 13.1868 90.3189 13.7024 90.5575 14.3288C90.7962 14.951 90.9155 15.6925 90.9155 16.5533V17.2628H82.8679V15.7031H88.6974C88.6932 15.2599 88.5973 14.8658 88.4098 14.5206C88.2223 14.1712 87.9602 13.8963 87.6236 13.696C87.2912 13.4957 86.9034 13.3956 86.4602 13.3956C85.9872 13.3956 85.5717 13.5107 85.2138 13.7408C84.8558 13.9666 84.5767 14.2649 84.3764 14.6357C84.1804 15.0021 84.0803 15.4048 84.076 15.8438V17.2053C84.076 17.7763 84.1804 18.2663 84.3892 18.6754C84.598 19.0803 84.8899 19.3913 85.2649 19.6087C85.6399 19.8217 86.0788 19.9283 86.5817 19.9283C86.9183 19.9283 87.223 19.8814 87.4957 19.7876C87.7685 19.6896 88.005 19.5469 88.2053 19.3594C88.4055 19.1719 88.5568 18.9396 88.6591 18.6626L90.8196 18.9055C90.6832 19.4766 90.4233 19.9751 90.0398 20.4013C89.6605 20.8232 89.1747 21.1513 88.5824 21.3857C87.9901 21.6158 87.3125 21.7308 86.5497 21.7308Z" fill="#2E2C2F"/>
<path d="M73.5483 15.7862V21.5391H71.2344V11.7209H73.446V13.3892H73.5611C73.7869 12.8395 74.147 12.4027 74.6413 12.0788C75.1399 11.755 75.7557 11.593 76.4886 11.593C77.1662 11.593 77.7564 11.7379 78.2592 12.0277C78.7663 12.3175 79.1584 12.7372 79.4354 13.2869C79.7166 13.8366 79.8551 14.5036 79.8509 15.2876V21.5391H77.5369V15.6456C77.5369 14.9893 77.3665 14.4759 77.0256 14.1051C76.6889 13.7344 76.2223 13.549 75.6257 13.549C75.2209 13.549 74.8608 13.6385 74.5455 13.8175C74.2344 13.9922 73.9893 14.2457 73.8104 14.5781C73.6357 14.9105 73.5483 15.3132 73.5483 15.7862Z" fill="#2E2C2F"/>
<path d="M58.196 21.5391L55.4219 11.7209H57.7805L59.5064 18.6243H59.5959L61.3601 11.7209H63.6932L65.4574 18.5859H65.5533L67.2536 11.7209H69.6186L66.8381 21.5391H64.4283L62.5874 14.9041H62.4531L60.6122 21.5391H58.196Z" fill="#2E2C2F"/>
<path d="M54.0298 14.9936C54.0298 16.4041 53.7656 17.6122 53.2372 18.6179C52.7131 19.6193 51.9972 20.3864 51.0895 20.919C50.1861 21.4517 49.1612 21.718 48.0149 21.718C46.8686 21.718 45.8416 21.4517 44.9339 20.919C44.0305 20.3821 43.3146 19.6129 42.7862 18.6115C42.2621 17.6058 42 16.3999 42 14.9936C42 13.5831 42.2621 12.3771 42.7862 11.3757C43.3146 10.37 44.0305 9.60085 44.9339 9.06818C45.8416 8.53551 46.8686 8.26918 48.0149 8.26918C49.1612 8.26918 50.1861 8.53551 51.0895 9.06818C51.9972 9.60085 52.7131 10.37 53.2372 11.3757C53.7656 12.3771 54.0298 13.5831 54.0298 14.9936ZM51.6456 14.9936C51.6456 14.0007 51.4901 13.1634 51.179 12.4815C50.8722 11.7955 50.446 11.2777 49.9006 10.9283C49.3551 10.5746 48.7266 10.3977 48.0149 10.3977C47.3033 10.3977 46.6747 10.5746 46.1293 10.9283C45.5838 11.2777 45.1555 11.7955 44.8445 12.4815C44.5376 13.1634 44.3842 14.0007 44.3842 14.9936C44.3842 15.9865 44.5376 16.826 44.8445 17.5121C45.1555 18.1939 45.5838 18.7116 46.1293 19.0653C46.6747 19.4148 47.3033 19.5895 48.0149 19.5895C48.7266 19.5895 49.3551 19.4148 49.9006 19.0653C50.446 18.7116 50.8722 18.1939 51.179 17.5121C51.4901 16.826 51.6456 15.9865 51.6456 14.9936Z" fill="#2E2C2F"/>
</svg>
